<svg id="Graphic_Elements" data-name="Graphic Elements" xmlns="http://www.w3.org/2000/svg" xmlns:xlink="http://www.w3.org/1999/xlink" viewBox="0 0 1130.48 783.37"><defs><style>.cls-1{fill:none;}.cls-2{clip-path:url(#clip-path);}.cls-3{fill:url(#linear-gradient);}.cls-4{fill:url(#linear-gradient-2);}.cls-5{fill:url(#linear-gradient-3);}.cls-6{fill:url(#linear-gradient-4);}.cls-7{fill:url(#linear-gradient-5);}.cls-8{fill:url(#linear-gradient-6);}</style><clipPath id="clip-path" transform="translate(277.94 -717.23)"><rect class="cls-1" width="1200" height="1200"/></clipPath><linearGradient id="linear-gradient" x1="1527.08" y1="989.07" x2="1822.35" y2="989.07" gradientTransform="translate(1946.34 2342.05) rotate(180)" gradientUnits="userSpaceOnUse"><stop offset="0" stop-color="#3f8ce2"/><stop offset="1" stop-color="#162c9a"/></linearGradient><linearGradient id="linear-gradient-2" x1="1690.44" y1="1151.73" x2="1985.71" y2="1151.73" gradientTransform="translate(1946.34 2342.05) rotate(180)" gradientUnits="userSpaceOnUse"><stop offset="0" stop-color="#a8a8a8"/><stop offset="1" stop-color="#ebebeb"/></linearGradient><linearGradient id="linear-gradient-3" x1="1093.8" y1="1067.42" x2="1389.07" y2="1067.42" xlink:href="#linear-gradient-2"/><linearGradient id="linear-gradient-4" x1="1265.5" y1="1233.52" x2="1717.31" y2="1233.52" xlink:href="#linear-gradient"/><linearGradient id="linear-gradient-5" x1="1778.9" y1="1402.12" x2="2224.28" y2="1402.12" xlink:href="#linear-gradient"/><linearGradient id="linear-gradient-6" x1="1667.6" y1="1320.15" x2="1806.24" y2="1320.15" gradientTransform="translate(-1952.25 1316.61) rotate(-45)" xlink:href="#linear-gradient"/></defs><title>botton</title><g class="cls-2"><path class="cls-3" d="M283.21,1210.14l131.25,131.25a16.37,16.37,0,0,1,0,23.16L283.21,1495.81a16.37,16.37,0,0,1-23.16,0L128.79,1364.55a16.37,16.37,0,0,1,0-23.16l131.26-131.25A16.37,16.37,0,0,1,283.21,1210.14Z" transform="translate(277.94 -717.23)"/><path class="cls-4" d="M119.85,1047.48,251.1,1178.74a16.37,16.37,0,0,1,0,23.16L119.85,1333.15a16.37,16.37,0,0,1-23.16,0L-34.57,1201.9a16.39,16.39,0,0,1,0-23.16L96.69,1047.48A16.39,16.39,0,0,1,119.85,1047.48Z" transform="translate(277.94 -717.23)"/><path class="cls-5" d="M716.49,1131.79,847.74,1263a16.38,16.38,0,0,1,0,23.17L716.49,1417.46a16.37,16.37,0,0,1-23.16,0L562.07,1286.21a16.38,16.38,0,0,1,0-23.17l131.26-131.25A16.37,16.37,0,0,1,716.49,1131.79Z" transform="translate(277.94 -717.23)"/><path class="cls-6" d="M470.45,889.05l204,204a21.94,21.94,0,0,1,0,31l-204,204a21.94,21.94,0,0,1-31,0l-204-204a21.94,21.94,0,0,1,0-31l204-204A21.94,21.94,0,0,1,470.45,889.05Z" transform="translate(277.94 -717.23)"/><path class="cls-7" d="M-39.74,723.66,161,924.41a22,22,0,0,1,0,31L-39.74,1156.19a21.93,21.93,0,0,1-31,0L-271.51,955.43a21.93,21.93,0,0,1,0-31L-70.76,723.66A21.93,21.93,0,0,1-39.74,723.66Z" transform="translate(277.94 -717.23)"/><rect class="cls-8" x="155.61" y="968.09" width="107.63" height="107.63" rx="16.38" transform="translate(-87.15 1175.35) rotate(-135)"/></g></svg>