<svg id="Graphic_Elements" data-name="Graphic Elements" xmlns="http://www.w3.org/2000/svg" xmlns:xlink="http://www.w3.org/1999/xlink" viewBox="0 0 1665.91 1114.24"><defs><style>.cls-1{fill:none;}.cls-2{clip-path:url(#clip-path);}.cls-3{fill:url(#linear-gradient);}.cls-4{fill:url(#linear-gradient-2);}.cls-5{fill:url(#linear-gradient-3);}.cls-6{fill:url(#linear-gradient-4);}.cls-7{fill:url(#linear-gradient-5);}.cls-8{fill:url(#linear-gradient-6);}.cls-9{fill:url(#linear-gradient-7);}</style><clipPath id="clip-path" transform="translate(-209.09 366.57)"><rect class="cls-1" width="1200" height="1200"/></clipPath><linearGradient id="linear-gradient" x1="1809.38" y1="608.87" x2="2002.02" y2="608.87" gradientTransform="translate(-692.62 759.26) rotate(-45)" gradientUnits="userSpaceOnUse"><stop offset="0" stop-color="#3f8ce2"/><stop offset="1" stop-color="#162c9a"/></linearGradient><linearGradient id="linear-gradient-2" x1="1000.29" y1="959.07" x2="1878.99" y2="959.07" gradientTransform="translate(476.58 1747.96) rotate(-90)" xlink:href="#linear-gradient"/><linearGradient id="linear-gradient-3" x1="1465.23" y1="493.29" x2="1884.14" y2="493.29" gradientTransform="translate(476.58 1747.96) rotate(-90)" xlink:href="#linear-gradient"/><linearGradient id="linear-gradient-4" x1="1686.64" y1="-104.77" x2="2012.06" y2="-104.77" gradientTransform="translate(476.58 1747.96) rotate(-90)" xlink:href="#linear-gradient"/><linearGradient id="linear-gradient-5" x1="1695.61" y1="262.91" x2="2114.53" y2="262.91" gradientTransform="translate(476.58 1747.96) rotate(-90)" gradientUnits="userSpaceOnUse"><stop offset="0" stop-color="#a8a8a8"/><stop offset="1" stop-color="#ebebeb"/></linearGradient><linearGradient id="linear-gradient-6" x1="1693.01" y1="725.24" x2="1885.64" y2="725.24" gradientTransform="translate(-576.25 711.06) rotate(-45)" xlink:href="#linear-gradient-5"/><linearGradient id="linear-gradient-7" x1="1576.47" y1="139.9" x2="1769.11" y2="139.9" gradientTransform="translate(-665.29 1159.09) rotate(-45)" xlink:href="#linear-gradient"/></defs><title>top</title><g class="cls-2"><rect class="cls-3" x="1012.54" y="-230.64" width="145.81" height="145.81" rx="16.38" transform="translate(220.36 1087.89) rotate(-45)"/><path class="cls-4" d="M1868.58,323.83,1451.16,741.25a22,22,0,0,1-31,0L1002.73,323.83a21.93,21.93,0,0,1,0-31L1420.14-124.6a21.93,21.93,0,0,1,31,0l417.42,417.41A22,22,0,0,1,1868.58,323.83Z" transform="translate(-209.09 366.57)"/><path class="cls-5" d="M1172.9,88.79,985.38,276.31a21.93,21.93,0,0,1-31,0L766.84,88.79a21.93,21.93,0,0,1,0-31L954.36-129.75a21.93,21.93,0,0,1,31,0L1172.9,57.77A21.93,21.93,0,0,1,1172.9,88.79Z" transform="translate(-209.09 366.57)"/><path class="cls-6" d="M528.09-85.88,387.31,54.9a22,22,0,0,1-31,0L215.52-85.88a21.93,21.93,0,0,1,0-31L356.29-257.67a21.93,21.93,0,0,1,31,0L528.09-116.9A22,22,0,0,1,528.09-85.88Z" transform="translate(-209.09 366.57)"/><path class="cls-7" d="M942.52-141.6,755,45.92a21.93,21.93,0,0,1-31,0L536.45-141.6a21.93,21.93,0,0,1,0-31L724-360.14a21.93,21.93,0,0,1,31,0L942.52-172.62A22,22,0,0,1,942.52-141.6Z" transform="translate(-209.09 366.57)"/><rect class="cls-8" x="1128.92" y="-114.26" width="145.81" height="145.81" rx="16.38" transform="translate(172.16 1204.27) rotate(-45)"/><rect class="cls-9" x="543.57" y="2.27" width="145.81" height="145.81" rx="16.38" transform="translate(-81.69 824.5) rotate(-45)"/></g></svg>